<svg width="24" height="24" fill="currentColor" viewBox="0 0 24 24" transform="" id="injected-svg" xmlns="http://www.w3.org/2000/svg"><!--Boxicons v3.0.8 https://boxicons.com | License  https://docs.boxicons.com/free--><path d="M4 4h4V2H4c-1.1 0-2 .9-2 2v4h2zm0 12H2v4c0 1.1.9 2 2 2h4v-2H4zm16 4h-4v2h4c1.1 0 2-.9 2-2v-4h-2zm0-18h-4v2h4v4h2V4c0-1.1-.9-2-2-2"></path><path d="M9.5 5h-3C5.67 5 5 5.67 5 6.5v3c0 .83.67 1.5 1.5 1.5h3c.83 0 1.5-.67 1.5-1.5v-3c0-.83-.67-1.5-1.5-1.5M9 9H7V7h2zm.5 4h-3c-.83 0-1.5.67-1.5 1.5v3c0 .83.67 1.5 1.5 1.5h3c.83 0 1.5-.67 1.5-1.5v-3c0-.83-.67-1.5-1.5-1.5M9 17H7v-2h2zm5.5-6h3c.83 0 1.5-.67 1.5-1.5v-3c0-.83-.67-1.5-1.5-1.5h-3c-.83 0-1.5.67-1.5 1.5v3c0 .83.67 1.5 1.5 1.5m.5-4h2v2h-2zm-2 6h2v2h-2zm2 2h2v2h-2zm2 2h2v2h-2zm0-4h2v2h-2z"></path></svg>